<?xml version="1.0" encoding="UTF-8"?> <svg xmlns="http://www.w3.org/2000/svg" width="95" height="57" viewBox="0 0 95 57" fill="none"><path d="M7.72213 8.75159H14.0893L26.9829 48.0032L26.2665 57L7.72213 8.75159ZM40.4335 7L41.0702 13.449L28.7338 48.1624C28.7338 48.1624 28.6012 48.6401 28.3359 49.5955C28.0706 50.4979 27.7788 51.6391 27.4604 53.0191C27.1951 54.3461 27.0359 55.673 26.9829 57H26.2665L24.7543 49.914L39.6376 7H40.4335ZM40.4335 7.07962L55.7148 46.0127L53.8842 57L37.7275 15.6783L40.4335 7.07962ZM69.7226 8.75159L56.5107 48.1624C56.5107 48.1624 56.3515 48.6401 56.0331 49.5955C55.7678 50.551 55.476 51.7187 55.1576 53.0987C54.8923 54.4257 54.7332 55.7261 54.6801 57H53.8842L52.9291 49.1178L65.1859 8.75159H69.7226ZM63.5942 13.8471C64.1778 12.1486 64.1247 10.9278 63.435 10.1847C62.7983 9.44161 62.0554 9.07007 61.2065 9.07007H60.5697V8.27389H75.1347L78 10.6637C78 10.6637 75.0285 9.07007 74.8163 9.07007C74.6571 9.07007 74.5775 9.07007 74.5775 9.07007C72.9327 9.07007 71.5531 9.52123 70.4389 10.4236C69.3246 11.3259 68.5287 12.4671 68.0512 13.8471H63.5942ZM15.7607 13.7675L9.71187 13.8471C9.18127 12.4671 8.38537 11.3259 7.32418 10.4236C6.26298 9.52123 4.88342 9.07007 3.18551 9.07007C3.18551 9.07007 3.07939 9.07007 2.86715 9.07007C2.65491 9.07007 0 10.6637 0 10.6637L2.54879 8.27389H18.9443V9.07007H18.3076C17.4586 9.07007 16.6892 9.44161 15.9995 10.1847C15.3097 10.8747 15.2301 12.069 15.7607 13.7675Z" fill="#741A34"></path><circle cx="87.5" cy="7.5" r="7" stroke="#741A34"></circle><path d="M82.7127 5.21019H83.5899L85.3662 9.92038L85.2675 11L82.7127 5.21019ZM87.2193 5L87.307 5.77389L85.6075 9.93949C85.6075 9.93949 85.5892 9.99682 85.5526 10.1115C85.5161 10.2197 85.4759 10.3567 85.432 10.5223C85.3955 10.6815 85.3735 10.8408 85.3662 11H85.2675L85.0592 10.1497L87.1096 5H87.2193ZM87.2193 5.00955L89.3246 9.68153L89.0724 11L86.8465 6.0414L87.2193 5.00955ZM91.2544 5.21019L89.4342 9.93949C89.4342 9.93949 89.4123 9.99682 89.3684 10.1115C89.3319 10.2261 89.2917 10.3662 89.2478 10.5318C89.2113 10.6911 89.1893 10.8471 89.182 11H89.0724L88.9408 10.0541L90.6294 5.21019H91.2544ZM90.4101 5.82166C90.4905 5.61783 90.4832 5.47134 90.3882 5.38217C90.3004 5.29299 90.1981 5.24841 90.0811 5.24841H89.9934V5.15287H92V5.24841C92 5.24841 91.9854 5.24841 91.9561 5.24841C91.9342 5.24841 91.9232 5.24841 91.9232 5.24841C91.6966 5.24841 91.5066 5.30255 91.3531 5.41083C91.1996 5.51911 91.0899 5.65605 91.0241 5.82166H90.4101ZM83.8202 5.8121L82.9868 5.82166C82.9137 5.65605 82.8041 5.51911 82.6579 5.41083C82.5117 5.30255 82.3216 5.24841 82.0877 5.24841C82.0877 5.24841 82.0731 5.24841 82.0439 5.24841C82.0146 5.24841 82 5.24841 82 5.24841V5.15287H84.2588V5.24841H84.1711C84.0541 5.24841 83.9481 5.29299 83.8531 5.38217C83.758 5.46497 83.7471 5.60828 83.8202 5.8121Z" fill="#741A34"></path></svg> 