<?xml version="1.0" encoding="UTF-8"?> <svg xmlns="http://www.w3.org/2000/svg" width="14" height="14" viewBox="0 0 14 14" fill="none"><circle cx="7" cy="7" r="6.5271" stroke="#741A34" stroke-width="0.945795"></circle><path d="M2.71272 4.21019H3.58991L5.36623 8.92038L5.26754 10L2.71272 4.21019ZM7.2193 4L7.30702 4.77389L5.60746 8.93949C5.60746 8.93949 5.58918 8.99682 5.55263 9.11146C5.51608 9.21975 5.47588 9.35669 5.43202 9.52229C5.39547 9.68153 5.37354 9.84076 5.36623 10H5.26754L5.05921 9.14968L7.10965 4H7.2193ZM7.2193 4.00955L9.32456 8.68153L9.07237 10L6.84649 5.0414L7.2193 4.00955ZM11.2544 4.21019L9.43421 8.93949C9.43421 8.93949 9.41228 8.99682 9.36842 9.11146C9.33187 9.22611 9.29167 9.36624 9.24781 9.53185C9.21126 9.69108 9.18933 9.84713 9.18202 10H9.07237L8.94079 9.05414L10.6294 4.21019H11.2544ZM10.4101 4.82166C10.4905 4.61783 10.4832 4.47134 10.3882 4.38217C10.3004 4.29299 10.1981 4.24841 10.0811 4.24841H9.99342V4.15287H12V4.24841C12 4.24841 11.9854 4.24841 11.9561 4.24841C11.9342 4.24841 11.9232 4.24841 11.9232 4.24841C11.6966 4.24841 11.5066 4.30255 11.3531 4.41083C11.1996 4.51911 11.0899 4.65605 11.0241 4.82166H10.4101ZM3.82018 4.8121L2.98684 4.82166C2.91374 4.65605 2.80409 4.51911 2.65789 4.41083C2.5117 4.30255 2.32164 4.24841 2.08772 4.24841C2.08772 4.24841 2.0731 4.24841 2.04386 4.24841C2.01462 4.24841 2 4.24841 2 4.24841V4.15287H4.25877V4.24841H4.17105C4.05409 4.24841 3.9481 4.29299 3.85307 4.38217C3.75804 4.46497 3.74708 4.60828 3.82018 4.8121Z" fill="#741A34"></path></svg> 